<svg xmlns="http://www.w3.org/2000/svg" viewBox="0 0 64 64">
  <defs>
    <linearGradient id="grad" x1="0%" y1="0%" x2="100%" y2="100%">
      <stop offset="0%" style="stop-color:#ff3b3b;stop-opacity:1" />
      <stop offset="100%" style="stop-color:#ff6b6b;stop-opacity:1" />
    </linearGradient>
  </defs>
  <rect width="64" height="64" rx="12" fill="#1a1a1a"/>
  <path fill="url(#grad)" d="M32 12c-10 0-18 8-18 18 0 5 2 9 6 12v6c0 2 1 3 3 3h18c2 0 3-1 3-3v-6c4-3 6-7 6-12 0-10-8-18-18-18zm-7 16a4 4 0 110 8 4 4 0 010-8zm14 0a4 4 0 110 8 4 4 0 010-8zM28 38h8l-2 4h-4z"/>
  <circle cx="28" cy="26" r="2" fill="#1a1a1a"/>
  <circle cx="36" cy="26" r="2" fill="#1a1a1a"/>
</svg>
